Coordinates
version=1
nRows=19
nColumns=24
inDegrees=yes

Units are S.I. units (second, meters, Newtons, ...)
Angles are in degrees.

endheader
time	pelvis_tilt	pelvis_list	pelvis_rotation	pelvis_tx	pelvis_ty	pelvis_tz	hip_flexion_r	hip_adduction_r	hip_rotation_r	knee_angle_r	ankle_angle_r	subtalar_angle_r	mtp_angle_r	hip_flexion_l	hip_adduction_l	hip_rotation_l	knee_angle_l	ankle_angle_l	subtalar_angle_l	mtp_angle_l	lumbar_extension	lumbar_bending	lumbar_rotation
      6.80000000	     60.33537251	      3.86827982	      8.20366488	      0.78141935	      1.08526415	     -0.27299150	     -3.80227515	    -11.47744198	     -3.95112970	    -52.11134520	    -16.94211406	      0.49515896	     48.98008795	      8.83669484	    -18.31260083	      1.95302967	    -62.96676878	     -5.02437734	     13.42481230	    -40.02560122	      0.00000000	      0.00000000	      0.00000000
      6.81000000	     60.33292702	      3.86671419	      8.20304781	      0.78142161	      1.08525890	     -0.27298725	     -3.79905032	    -11.47357871	     -3.94833192	    -52.12343342	    -16.90582672	      0.51691963	     48.84440403	      8.83777654	    -18.31891184	      1.96926668	    -62.97888576	     -5.03427329	     13.41134236	    -40.01415441	      0.00000000	      0.00000000	      0.00000000
      6.82000000	     60.32977413	      3.86547067	      8.20211060	      0.78141228	      1.08525311	     -0.27298071	     -3.79551100	    -11.46925564	     -3.94275705	    -52.13864507	    -16.86144950	      0.54186835	     48.68815051	      8.83989312	    -18.32774818	      1.98845267	    -62.99585185	     -5.04573878	     13.39794490	    -39.99964350	      0.00000000	      0.00000000	      0.00000000
      6.83000000	     60.32725395	      3.86492751	      8.20137402	      0.78140898	      1.08524634	     -0.27297093	     -3.79058288	    -11.46417940	     -3.93451870	    -52.15541269	    -16.81180584	      0.56864509	     48.52537346	      8.84213667	    -18.33885171	      2.01022472	    -63.01756143	     -5.05704499	     13.38601828	    -39.98341691	      0.00000000	      0.00000000	      0.00000000
      6.84000000	     60.32555775	      3.86517672	      8.20114730	      0.78142482	      1.08523857	     -0.27296038	     -3.78454170	    -11.45819008	     -3.92430258	    -52.17268756	    -16.76098348	      0.59549234	     48.37048465	      8.84413539	    -18.35161746	      2.03426325	    -63.04336546	     -5.06656911	     13.37617303	    -39.96637491	      0.00000000	      0.00000000	      0.00000000
      6.85000000	     60.32314485	      3.86566606	      8.20132414	      0.78144186	      1.08522878	     -0.27295086	     -3.77977319	    -11.45171187	     -3.91327207	    -52.19032965	    -16.71404710	      0.62025987	     48.23668508	      8.84620550	    -18.36535333	      2.06030156	    -63.07243326	     -5.07335539	     13.36829832	    -39.94880835	      0.00000000	      0.00000000	      0.00000000
      6.86000000	     60.31913001	      3.86596758	      8.20172680	      0.78144498	      1.08521734	     -0.27294441	     -3.77789815	    -11.44574844	     -3.90333479	    -52.20733605	    -16.67635365	      0.64059521	     48.13454774	      8.84865527	    -18.37958289	      2.08802451	    -63.10447881	     -5.07755277	     13.36189286	    -39.93039868	      0.00000000	      0.00000000	      0.00000000
      6.87000000	     60.31466276	      3.86636363	      8.20225692	      0.78144340	      1.08520851	     -0.27294222	     -3.77786211	    -11.44147952	     -3.89697280	    -52.22091868	    -16.65249358	      0.65433240	     48.07091910	      8.85121675	    -18.39411316	      2.11699415	    -63.13994142	     -5.08042299	     13.35646843	    -39.91035201	      0.00000000	      0.00000000	      0.00000000
      6.88000000	     60.31124364	      3.86742611	      8.20266001	      0.78144481	      1.08520575	     -0.27294152	     -3.77762429	    -11.43977328	     -3.89622721	    -52.22808454	    -16.64508489	      0.66002880	     48.04825286	      8.85322285	    -18.40886583	      2.14675918	    -63.17927952	     -5.08385116	     13.35183743	    -39.88761505	      0.00000000	      0.00000000	      0.00000000
      6.89000000	     60.30927566	      3.86963674	      8.20261833	      0.78144957	      1.08520579	     -0.27294104	     -3.77599441	    -11.44076037	     -3.90161451	    -52.22743711	    -16.65388270	      0.65747717	     48.06444236	      8.85399822	    -18.42377538	      2.17719395	    -63.22217161	     -5.08958251	     13.34816364	    -39.86113355	      0.00000000	      0.00000000	      0.00000000
      6.90000000	     60.30808117	      3.87315018	      8.20221263	      0.78146058	      1.08520273	     -0.27294338	     -3.77310286	    -11.44378548	     -3.91170149	    -52.21991176	    -16.67565746	      0.64794272	     48.11317171	      8.85312244	    -18.43874965	      2.20874987	    -63.26739924	     -5.09853598	     13.34579054	    -39.83011936	      0.00000000	      0.00000000	      0.00000000
      6.91000000	     60.30639631	      3.87746518	      8.20201587	      0.78147508	      1.08519700	     -0.27294860	     -3.77036762	    -11.44776038	     -3.92358084	    -52.20865380	    -16.70498280	      0.63396440	     48.18475392	      8.85070979	    -18.45356708	      2.24235622	    -63.31332058	     -5.11047741	     13.34502302	    -39.79428818	      0.00000000	      0.00000000	      0.00000000
      6.92000000	     60.30341745	      3.88172542	      8.20263582	      0.78148423	      1.08519382	     -0.27295391	     -3.76947822	    -11.45152512	     -3.93412074	    -52.19770351	    -16.73565989	      0.61875375	     48.26736793	      8.84743822	    -18.46789586	      2.27912203	    -63.35856238	     -5.12418300	     13.34605468	    -39.75403793	      0.00000000	      0.00000000	      0.00000000
      6.93000000	     60.29973608	      3.88549669	      8.20426926	      0.78148766	      1.08519392	     -0.27295891	     -3.77079231	    -11.45411502	     -3.94124049	    -52.19002840	    -16.76223579	      0.60539125	     48.34855012	      8.84402590	    -18.48148666	      2.32000024	    -63.40267845	     -5.13802252	     13.34904595	    -39.71054486	      0.00000000	      0.00000000	      0.00000000
      6.94000000	     60.29666722	      3.88895314	      8.20655453	      0.78149070	      1.08519184	     -0.27296414	     -3.77321196	    -11.45506638	     -3.94434587	    -52.18665510	    -16.78107989	      0.59609553	     48.41675203	      8.84065950	    -18.49433408	      2.36549881	    -63.44631423	     -5.15063591	     13.35415265	    -39.66575510	      0.00000000	      0.00000000	      0.00000000
      6.95000000	     60.29489025	      3.89243238	      8.20869339	      0.78149350	      1.08518545	     -0.27296833	     -3.77547277	    -11.45459276	     -3.94391416	    -52.18719812	    -16.79074082	      0.59181078	     48.46275290	      8.83704226	    -18.50671074	      2.41554109	    -63.49054540	     -5.16128736	     13.36133549	    -39.62225937	      0.00000000	      0.00000000	      0.00000000
      6.96000000	     60.29421973	      3.89604882	      8.20985655	      0.78149329	      1.08518156	     -0.27297140	     -3.77702621	    -11.45335308	     -3.94088522	    -52.19062943	    -16.79163771	      0.59221990	     48.48072280	      8.83291812	    -18.51904957	      2.46943219	    -63.53586244	     -5.16976045	     13.37002975	    -39.58306160	      0.00000000	      0.00000000	      0.00000000
      6.97000000	     60.29428031	      3.89956200	      8.20972367	      0.78149144	      1.08518639	     -0.27297461	     -3.77791164	    -11.45192102	     -3.93632753	    -52.19567450	    -16.78537574	      0.59610457	     48.46878230	      8.82833634	    -18.53163660	      2.52587516	    -63.58169775	     -5.17603501	     13.37894275	    -39.55127104	      0.00000000	      0.00000000	      0.00000000
      6.98000000	     60.29487917	      3.90244392	      8.20875037	      0.78149185	      1.08519556	     -0.27297598	     -3.77829742	    -11.45044401	     -3.93134663	    -52.20107158	    -16.77404624	      0.60186721	     48.42899279	      8.82336475	    -18.54439426	      2.58319020	    -63.62681791	     -5.18004899	     13.38619783	    -39.52975503	      0.00000000	      0.00000000	      0.00000000
